<?xml version="1.0" encoding="UTF-8"?>
<svg xmlns="http://www.w3.org/2000/svg" xmlns:xlink="http://www.w3.org/1999/xlink" width="2250" height="2250" viewBox="0 0 2250 2250">

<path fill-rule="nonzero" fill="rgb(86.326599%, 66.992188%, 80.076599%)" fill-opacity="1" d="M 850.726562 1137.558594 C 850.726562 1137.558594 607.785156 1128.558594 531.300781 1241.039062 C 454.820312 1353.507812 391.386719 1838.089844 391.386719 1838.089844 C 913.777344 2093.183594 1282.300781 2131.230469 1858.609375 1829.089844 C 1858.609375 1829.089844 1778.269531 1262.53125 1647.808594 1172.558594 C 1517.339844 1082.570312 850.726562 1137.558594 850.726562 1137.558594 Z M 850.726562 1137.558594 "/>
<path fill-rule="nonzero" fill="rgb(78.125%, 43.920898%, 14.109802%)" fill-opacity="1" d="M 877.71875 767.480469 L 858.597656 1151.859375 C 1033.609375 1254.574219 1228.511719 1221.539062 1368.101562 1133.300781 L 1311.859375 746.160156 Z M 877.71875 767.480469 "/>
<path fill-rule="nonzero" fill="rgb(67.771912%, 39.208984%, 12.156677%)" fill-opacity="1" d="M 1311.871094 746.160156 L 877.726562 767.480469 L 871.734375 888.019531 C 923.417969 954.738281 1015.871094 1050.449219 1102.550781 1050.449219 C 1221.238281 1050.449219 1302.78125 904.980469 1327.28125 852.289062 Z M 1311.871094 746.160156 "/>
<path fill-rule="nonzero" fill="rgb(78.125%, 43.920898%, 14.109802%)" fill-opacity="1" d="M 1211.53125 311.058594 C 1164.710938 285.238281 955.441406 282.429688 912.496094 330.148438 C 869.550781 377.871094 813.878906 756.429688 832.964844 793.019531 C 852.054688 829.601562 982.839844 1012.21875 1102.550781 1012.21875 C 1231.320312 1012.21875 1316.511719 840.730469 1332.410156 802.558594 C 1348.320312 764.378906 1287.160156 352.769531 1211.53125 311.058594 Z M 1211.53125 311.058594 "/>
<path fill-rule="nonzero" fill="rgb(31.762695%, 22.75238%, 18.431091%)" fill-opacity="1" d="M 1083.621094 207.339844 C 1006.480469 206.480469 927.054688 223.058594 872.101562 264.769531 C 759.089844 350.53125 738.257812 498.710938 729.261719 563.941406 C 720.265625 629.179688 646.585938 661.769531 630.777344 736.21875 C 606.03125 852.738281 673.023438 867.621094 666.277344 937.359375 C 659.527344 1007.089844 569.550781 1000.339844 578.546875 1121.808594 C 587.546875 1243.28125 749.507812 1214.039062 745.007812 1304.015625 C 740.507812 1393.996094 670.773438 1486.222656 670.773438 1486.222656 C 735.328125 1467.140625 802.292969 1453.679688 848.480469 1391.746094 C 891.71875 1427.328125 866.578125 1481.558594 816.988281 1542.457031 C 816.988281 1542.457031 962.046875 1479.183594 960.523438 1407.605469 C 958.277344 1301.878906 899.097656 1312.058594 899.097656 1247.699219 C 899.097656 1190.320312 942.960938 1184.800781 949.707031 1088.070312 C 951.003906 1069.441406 947.347656 1052.851562 940.65625 1037.679688 C 972.171875 1057.359375 1006.921875 1071.71875 1047.699219 1076.140625 C 936.550781 987.378906 875.226562 857.871094 851.347656 697.71875 C 856.238281 680.300781 862.199219 662.871094 869.625 645.699219 C 905.613281 562.46875 988.929688 561.839844 1059.949219 469.929688 C 1108.488281 407.109375 1140.910156 307.511719 1140.910156 307.511719 C 1149.191406 394.480469 1265.550781 488.78125 1296.128906 602.191406 C 1360.058594 839.308594 1292.390625 1059.050781 1100.789062 1185.339844 C 1162.058594 1185.171875 1212.289062 1161.570312 1259.101562 1130.71875 C 1251.351562 1166.410156 1256.789062 1213.910156 1287.128906 1308.515625 C 1343.359375 1483.972656 1278.128906 1519.964844 1278.128906 1519.964844 C 1397.421875 1460.636719 1473.210938 1413.660156 1445.710938 1258.464844 C 1470.039062 1324.738281 1562.230469 1337.738281 1561.558594 1335.507812 C 1509.820312 1303.78125 1429.640625 1227.769531 1479.449219 1138.679688 C 1518.359375 1069.101562 1561.558594 1056.570312 1532.320312 928.359375 C 1503.070312 800.140625 1467.078125 811.390625 1440.089844 748.398438 C 1413.101562 685.421875 1468.710938 651.710938 1444.859375 515.230469 C 1428.070312 419.160156 1361.71875 303.859375 1281.5 254.640625 C 1235.640625 226.511719 1160.769531 208.199219 1083.621094 207.339844 Z M 1083.621094 207.339844 "/>
<path fill-rule="nonzero" fill="rgb(77.734375%, 46.263123%, 67.381287%)" fill-opacity="1" d="M 1565.140625 1516.175781 L 1561.308594 1961.359375 C 1583.808594 1953.371094 1606.578125 1944.78125 1629.660156 1935.558594 Z M 1565.140625 1516.175781 "/>
<path fill-rule="nonzero" fill="rgb(77.734375%, 46.263123%, 67.381287%)" fill-opacity="1" d="M 678.859375 1520.675781 L 614.835938 1936.824219 C 637.652344 1945.671875 660.25 1954.003906 682.65625 1961.796875 Z M 678.859375 1520.675781 "/>
</svg>
